<!DOCTYPE svg PUBLIC "-//W3C//DTD SVG 1.1//EN" "http://www.w3.org/Graphics/SVG/1.1/DTD/svg11.dtd">
<!-- Uploaded to: SVG Repo, www.svgrepo.com, Transformed by: SVG Repo Mixer Tools -->
<svg fill="#000000" width="141px" height="141px" viewBox="-2.4 -2.4 28.80 28.80" id="airplane-mode" data-name="Flat Line" xmlns="http://www.w3.org/2000/svg" class="icon flat-line">
<g id="SVGRepo_bgCarrier" stroke-width="0">
<rect x="-2.4" y="-2.4" width="28.80" height="28.80" rx="14.4" fill="#5fec82" strokewidth="0"/>
</g>
<g id="SVGRepo_tracerCarrier" stroke-linecap="round" stroke-linejoin="round"/>
<g id="SVGRepo_iconCarrier">
<path id="secondary" d="M20,14V11.89a1,1,0,0,0-.42-.81L14,7.16V5a2,2,0,0,0-2-2h0a2,2,0,0,0-2,2V7.16L4.42,11.08a1,1,0,0,0-.42.81V14l6-1v3L8.29,17.71a1,1,0,0,0-.29.7V21l4-2,4,2V18.41a1,1,0,0,0-.29-.7L14,16V13Z" style="fill: #020804; stroke-width:0.528;"/>
<path id="primary" d="M20,14V11.89a1,1,0,0,0-.42-.81L14,7.16V5a2,2,0,0,0-2-2h0a2,2,0,0,0-2,2V7.16L4.42,11.08a1,1,0,0,0-.42.81V14l6-1v3L8.29,17.71a1,1,0,0,0-.29.7V21l4-2,4,2V18.41a1,1,0,0,0-.29-.7L14,16V13Z" style="fill: none; stroke: #000000; stroke-linecap: round; stroke-linejoin: round; stroke-width:0.528;"/>
</g>
</svg>